# xmcd CD database file
#
# Track frame offsets:
#	150
#	13335
#	29961
#	45606
#	64689
#	86205
#	107130
#	123114
#	140032
#	160853
#
# Disc length: 2350 seconds
#
# Revision: 0
# Processed by: cddbd v1.5.2PL0 Copyright (c) Steve Scherf et al.
# Submitted via: CDex 1.51
#
DISCID=8f092c0a
DTITLE=Austin Lucas - A New Home In The Old World
DYEAR=2011
DGENRE=Country
TTITLE0=Run Around
TTITLE1=Sit Down
TTITLE2=Darkness Out of Me
TTITLE3=Thunder Rail
TTITLE4=Nevada County Line
TTITLE5=Sleep Well
TTITLE6=Feast
TTITLE7=The Grain
TTITLE8=Keys
TTITLE9=Somewhere a Light Shines
EXTD=YEAR: 2011
EXTT0=
EXTT1=
EXTT2=
EXTT3=
EXTT4=
EXTT5=
EXTT6=
EXTT7=
EXTT8=
EXTT9=
PLAYORDER=
